<mxfile host="app.diagrams.net" modified="2023-10-10T02:17:20.391Z" agent="Mozilla/5.0 (Windows NT 10.0; Win64; x64) AppleWebKit/537.36 (KHTML, like Gecko) Chrome/117.0.0.0 Safari/537.36" etag="N2NAb8OQhXRq6tdhODMl" version="22.0.4" type="github">
  <diagram name="Halaman-1" id="XNThuzbCWKJ-d_U-6Ogo">
    <mxGraphModel dx="880" dy="446" grid="1" gridSize="10" guides="1" tooltips="1" connect="1" arrows="1" fold="1" page="1" pageScale="1" pageWidth="827" pageHeight="1169" math="0" shadow="0">
      <root>
        <mxCell id="0" />
        <mxCell id="1" parent="0" />
        <mxCell id="lQXS4f0XreA7pZha80O--1" value="&lt;b&gt;&lt;font style=&quot;font-size: 15px;&quot;&gt;peminjam&lt;/font&gt;&lt;/b&gt;" style="shape=umlActor;verticalLabelPosition=bottom;verticalAlign=top;html=1;outlineConnect=0;" vertex="1" parent="1">
          <mxGeometry x="120" y="170" width="85" height="170" as="geometry" />
        </mxCell>
        <mxCell id="lQXS4f0XreA7pZha80O--2" value="&lt;font size=&quot;1&quot; style=&quot;&quot;&gt;&lt;b style=&quot;font-size: 15px;&quot;&gt;pustakawan&lt;/b&gt;&lt;/font&gt;" style="shape=umlActor;verticalLabelPosition=bottom;verticalAlign=top;html=1;outlineConnect=0;" vertex="1" parent="1">
          <mxGeometry x="640" y="170" width="85" height="170" as="geometry" />
        </mxCell>
        <mxCell id="lQXS4f0XreA7pZha80O--6" value="" style="rounded=0;whiteSpace=wrap;html=1;" vertex="1" parent="1">
          <mxGeometry x="290" y="54" width="220" height="411" as="geometry" />
        </mxCell>
        <mxCell id="lQXS4f0XreA7pZha80O--9" value="&lt;b&gt;&lt;font style=&quot;font-size: 16px;&quot;&gt;pencarian&lt;/font&gt;&lt;/b&gt;" style="ellipse;whiteSpace=wrap;html=1;" vertex="1" parent="1">
          <mxGeometry x="340" y="125" width="120" height="80" as="geometry" />
        </mxCell>
        <mxCell id="lQXS4f0XreA7pZha80O--10" value="&lt;b&gt;&lt;font style=&quot;font-size: 16px;&quot;&gt;buku&lt;/font&gt;&lt;/b&gt;" style="ellipse;whiteSpace=wrap;html=1;" vertex="1" parent="1">
          <mxGeometry x="340" y="230" width="120" height="80" as="geometry" />
        </mxCell>
        <mxCell id="lQXS4f0XreA7pZha80O--11" value="&lt;b&gt;&lt;font style=&quot;font-size: 16px;&quot;&gt;rincian buku&lt;/font&gt;&lt;/b&gt;" style="ellipse;whiteSpace=wrap;html=1;" vertex="1" parent="1">
          <mxGeometry x="340" y="330" width="120" height="80" as="geometry" />
        </mxCell>
        <mxCell id="lQXS4f0XreA7pZha80O--12" value="perpusdigital" style="text;html=1;strokeColor=none;fillColor=none;align=center;verticalAlign=middle;whiteSpace=wrap;rounded=0;strokeWidth=28;perimeterSpacing=17;fontStyle=1;spacing=11;spacingTop=7;spacingLeft=0;fontSize=18;" vertex="1" parent="1">
          <mxGeometry x="360" y="60" width="80" height="40" as="geometry" />
        </mxCell>
        <mxCell id="lQXS4f0XreA7pZha80O--13" value="" style="endArrow=classic;html=1;rounded=0;exitX=1;exitY=0.3333333333333333;exitDx=0;exitDy=0;exitPerimeter=0;entryX=0;entryY=0.5;entryDx=0;entryDy=0;" edge="1" parent="1" source="lQXS4f0XreA7pZha80O--1" target="lQXS4f0XreA7pZha80O--9">
          <mxGeometry width="50" height="50" relative="1" as="geometry">
            <mxPoint x="390" y="350" as="sourcePoint" />
            <mxPoint x="440" y="300" as="targetPoint" />
          </mxGeometry>
        </mxCell>
        <mxCell id="lQXS4f0XreA7pZha80O--14" value="" style="endArrow=classic;html=1;rounded=0;exitX=1;exitY=0.3333333333333333;exitDx=0;exitDy=0;exitPerimeter=0;entryX=0;entryY=0.5;entryDx=0;entryDy=0;" edge="1" parent="1" source="lQXS4f0XreA7pZha80O--1" target="lQXS4f0XreA7pZha80O--10">
          <mxGeometry width="50" height="50" relative="1" as="geometry">
            <mxPoint x="215" y="237" as="sourcePoint" />
            <mxPoint x="350" y="175" as="targetPoint" />
          </mxGeometry>
        </mxCell>
        <mxCell id="lQXS4f0XreA7pZha80O--15" value="" style="endArrow=classic;html=1;rounded=0;entryX=0;entryY=0.5;entryDx=0;entryDy=0;exitX=1;exitY=0.3333333333333333;exitDx=0;exitDy=0;exitPerimeter=0;" edge="1" parent="1" source="lQXS4f0XreA7pZha80O--1" target="lQXS4f0XreA7pZha80O--11">
          <mxGeometry width="50" height="50" relative="1" as="geometry">
            <mxPoint x="210" y="230" as="sourcePoint" />
            <mxPoint x="350" y="280" as="targetPoint" />
          </mxGeometry>
        </mxCell>
        <mxCell id="lQXS4f0XreA7pZha80O--16" value="" style="endArrow=classic;html=1;rounded=0;entryX=1;entryY=0.5;entryDx=0;entryDy=0;exitX=0;exitY=0.3333333333333333;exitDx=0;exitDy=0;exitPerimeter=0;" edge="1" parent="1" source="lQXS4f0XreA7pZha80O--2" target="lQXS4f0XreA7pZha80O--11">
          <mxGeometry width="50" height="50" relative="1" as="geometry">
            <mxPoint x="215" y="237" as="sourcePoint" />
            <mxPoint x="350" y="380" as="targetPoint" />
          </mxGeometry>
        </mxCell>
        <mxCell id="lQXS4f0XreA7pZha80O--17" value="" style="endArrow=classic;html=1;rounded=0;entryX=1;entryY=0.5;entryDx=0;entryDy=0;exitX=0;exitY=0.3333333333333333;exitDx=0;exitDy=0;exitPerimeter=0;" edge="1" parent="1" source="lQXS4f0XreA7pZha80O--2" target="lQXS4f0XreA7pZha80O--9">
          <mxGeometry width="50" height="50" relative="1" as="geometry">
            <mxPoint x="650" y="237" as="sourcePoint" />
            <mxPoint x="470" y="380" as="targetPoint" />
          </mxGeometry>
        </mxCell>
      </root>
    </mxGraphModel>
  </diagram>
</mxfile>
